<svg xmlns="http://www.w3.org/2000/svg" viewBox="0 0 1587.93 154.47"><defs><style>.cls-1{fill:#020202;}</style></defs><title>Zasób 3</title><g id="Warstwa_2" data-name="Warstwa 2"><g id="Warstwa_1-2" data-name="Warstwa 1"><g id="logotyp"><path class="cls-1" d="M764.32,20.9h41.73V154.47h35V20.9h17.13C879,20.9,882.86,5,882.86.14H764.32Z"/><path class="cls-1" d="M111.1,71c0,24.63,6.42,33.63,13.26,43.58-.32.24-6.33,4.27-6.33,4.27L57.62,32.91C33.29-1.43,22.58.09,0,.09V154.47H27.9V78.2c0-24.61-6.42-33.57-13.26-43.5C15,34.39,21,30.4,21,30.4l63.66,90.09C109,154.88,116.41,154.35,139,154.35V0H111.1Z"/><path class="cls-1" d="M407.21,154.47h98.17v-21.1H440.8V84.76h25.73c26.39,0,29-18.16,29-20.29H422.39V57.25c11.85,0,18.41-6.63,18.41-22.35v-14h64.58V.14H407.21Z"/><path class="cls-1" d="M1527.47.1c-28.76,0-36.9,11.22-49.39,44-12.93,33.93-40.47,98.18-45.42,110.33h32.92l13.82-40.51h59.23l14,40.56h35.27Zm-41.86,95.69,14.73-43.32c6.21-19.15,12.82-34.74,12.82-34.74l7.27,2.45c-5.59,17.07-6.08,23.14-.56,39.8l12.61,35.81Z"/><path class="cls-1" d="M1151.45,35.08V154.47h35.27V.1S1151.45-1.87,1151.45,35.08Z"/></g></g></g></svg>